<svg xmlns="http://www.w3.org/2000/svg" xmlns:svg="http://www.w3.org/2000/svg" id="svg10" width="16" height="16" version="1.1" viewBox="203.28 149.413 16 16"><metadata id="metadata16"/><g id="g8" fill="none"><path id="path2" d="M 4.1992188 0.67773438 C 3.0792187 0.67773438 2.5197969 0.67653125 2.0917969 0.89453125 A 2 2 0 0 0 1.21875 1.7695312 C 1.00075 2.1965312 1 2.7559531 1 3.8769531 L 1 9.4765625 A 104.578 104.578 0 0 0 1 9.9277344 L 1 15.072266 C 1 15.295266 1.2707344 15.407 1.4277344 15.25 L 4 12.675781 L 11.800781 12.675781 C 12.920781 12.675781 13.480203 12.675984 13.908203 12.458984 A 2 2 0 0 0 14.78125 11.585938 C 14.99925 11.157938 15 10.596563 15 9.4765625 L 15 3.8769531 C 15 2.7569531 14.99925 2.1975312 14.78125 1.7695312 A 2 2 0 0 0 13.908203 0.89453125 C 13.480203 0.67653125 12.920781 0.67773438 11.800781 0.67773438 L 4.1992188 0.67773438 z M 5.5527344 3.109375 L 8 5.5566406 L 10.449219 3.109375 L 11.501953 4.1621094 L 9.0527344 6.609375 L 11.5 9.0566406 L 10.449219 10.109375 L 8.0019531 7.6621094 L 5.5527344 10.109375 L 4.5 9.0566406 L 6.9492188 6.609375 L 4.5 4.1601562 L 5.5527344 3.109375 z" transform="translate(203.28,149.413)" style="fill:#000;fill-opacity:1"/><g id="path4231" style="opacity:1"><path style="color:#000;font-style:normal;font-variant:normal;font-weight:400;font-stretch:normal;font-size:medium;line-height:normal;font-family:sans-serif;font-variant-ligatures:normal;font-variant-position:normal;font-variant-caps:normal;font-variant-numeric:normal;font-variant-alternates:normal;font-variant-east-asian:normal;font-feature-settings:normal;font-variation-settings:normal;text-indent:0;text-align:start;text-decoration:none;text-decoration-line:none;text-decoration-style:solid;text-decoration-color:#000;letter-spacing:normal;word-spacing:normal;text-transform:none;writing-mode:lr-tb;direction:ltr;text-orientation:mixed;dominant-baseline:auto;baseline-shift:baseline;text-anchor:start;white-space:normal;shape-padding:0;shape-margin:0;inline-size:0;clip-rule:nonzero;display:inline;overflow:visible;visibility:visible;isolation:auto;mix-blend-mode:normal;color-interpolation:sRGB;color-interpolation-filters:linearRGB;solid-color:#000;solid-opacity:1;vector-effect:none;fill:red;fill-opacity:1;fill-rule:nonzero;stroke:none;stroke-width:1.48711;stroke-linecap:butt;stroke-linejoin:miter;stroke-miterlimit:4;stroke-dasharray:none;stroke-dashoffset:0;stroke-opacity:1;color-rendering:auto;image-rendering:auto;shape-rendering:auto;text-rendering:auto;enable-background:accumulate;stop-color:#000;stop-opacity:1" id="path955" d="m 214.25461,153.04777 -5.94922,5.94726 z m -5.94884,-8.1e-4 5.94846,5.94846"/></g></g></svg>