<svg xmlns="http://www.w3.org/2000/svg" xmlns:svg="http://www.w3.org/2000/svg" id="svg10" width="16" height="16" version="1.1" viewBox="203.28 149.413 16 16"><metadata id="metadata16"/><defs id="defs14"><rect id="rect834" width="8.593" height="8.577" x="198.898" y="152.875"/></defs><g id="g8" fill="none"><path id="path2" d="m 4.1992188,0.67773438 c -1.1200001,0 -1.6794219,-0.001203 -2.1074219,0.21679687 C 1.7156914,1.0866976 1.4100754,1.3929972 1.21875,1.7695312 1.00075,2.1965312 1,2.7559531 1,3.8769531 V 9.4765625 C 0.99967559,9.626953 0.99967559,9.7773439 1,9.9277344 V 15.072266 C 1,15.295266 1.2707344,15.407 1.4277344,15.25 L 4,12.675781 h 7.800781 c 1.12,0 1.679422,2.03e-4 2.107422,-0.216797 0.375808,-0.191657 0.68139,-0.497239 0.873047,-0.873046 C 14.99925,11.157937 15,10.596563 15,9.4765625 V 3.8769531 c 0,-1.12 -7.5e-4,-1.6794218 -0.21875,-2.1074219 -0.191325,-0.3765339 -0.496941,-0.6828336 -0.873047,-0.87499995 -0.428,-0.218 -0.987422,-0.21679687 -2.107422,-0.21679687 z M 4.65,3.6504589 h 6.4 v 1.3 2.7 h -1.3 -1.5 -1 v -1.3 h 2.5 v -1.4 h -5.1 z m 2.6,5.3469179 h 1.4 v 1.2861642 h -1.4 z" transform="translate(203.28,149.413)" style="fill:#000;fill-opacity:1"/><path id="path6" d="M 9,4.5 H 8.5 V 5 C 9.1675827,5.3342493 8.8333333,4.6666667 9,4.5 Z M 11,5 h 0.5 V 4.5 H 11 Z M 9,9.5 H 8.5 V 10 H 9 Z m 2,0 V 10 h 0.5 V 9.5 Z M 9,11 V 10.5 H 8.5 V 11 Z m 2,0 h 0.5 V 10.5 H 11 Z M 9,13 H 8.5 v 0.5 H 9 Z m 2,0 v 0.5 h 0.5 V 13 Z M 9,5.5 h 2 v -1 H 9 Z m 0.5,4 C 9.1606469,7.8357721 10.650282,5 8.5,5 V 9.5 Z M 11,9 H 9 v 1 h 2 z M 10.5,5 v 4.5 h 1 V 5 Z M 9,11.5 h 2 v -1 H 9 Z M 9.5,13 v -2 h -1 v 2 z M 11,12.5 H 9 v 1 h 2 z M 10.5,11 v 2 h 1 v -2 z" mask="url(#path-4-outside-2)" transform="translate(201.28,147.09)"/><text id="text832" xml:space="preserve" style="font-style:normal;font-weight:400;font-size:8px;line-height:1.25;font-family:sans-serif;letter-spacing:0;word-spacing:0;white-space:pre;shape-inside:url(#rect834);fill:#000;fill-opacity:1;stroke:none"><tspan style="visibility:hidden" x="198.898" y="168.529"><tspan>?</tspan></tspan></text></g></svg>