<svg xmlns="http://www.w3.org/2000/svg" xmlns:svg="http://www.w3.org/2000/svg" id="svg6" fill="none" version="1.1" viewBox="0 0 13 13"><metadata id="metadata12"/><path id="path2" fill="#000" d="m 12,1 h -1 v 11 h 1 z M 6,1 H 5 v 11 h 1 z"/><path id="path4" fill="#000" d="M 12,7 H 8 C 7.4477,7 7,7.4477 7,8 v 1 c 0,0.5523 0.4477,1 1,1 h 4 z M 6,7 H 2 C 1.4477,7 1,7.4477 1,8 v 1 c 0,0.5523 0.4477,1 1,1 H 6 Z M 12,3 H 9 C 8.4477,3 8,3.4477 8,4 v 1 c 0,0.5523 0.4477,1 1,1 h 3 z M 6,3 H 3 C 2.4477,3 2,3.4477 2,4 v 1 c 0,0.5523 0.4477,1 1,1 h 3 z"/></svg>